<svg enable-background="new 0 0 527 512" viewBox="0 0 527 512" xmlns="http://www.w3.org/2000/svg"><g fill="#777"><path d="m416.6 77.6h-304.5c-15.9 0-29 13-29 29v295.7c0 17.7 14.5 32.1 32.1 32.1h300.7c16 0 29-13.1 29-29v-299.4c.1-15.6-12.7-28.4-28.3-28.4zm-12 321.1h-282v-286.2h282.1v286.2z"/><path d="m167 141.6h194c6 0 10.8 4.8 10.8 10.8v64.6c0 6-4.8 10.8-10.8 10.8h-23.9c-6 0-10.8-4.8-10.8-10.8v-32.3h-36.9v142.7h23.1c6 0 10.8 4.8 10.8 10.8v21.5c0 6-4.8 10.8-10.8 10.8h-97c-6 0-10.8-4.8-10.8-10.8v-21.5c0-6 4.8-10.8 10.8-10.8h23.1v-142.7h-36.9v32.3c0 6-4.8 10.8-10.8 10.8h-23.9c-6 0-10.8-4.8-10.8-10.8v-64.6c.1-6 4.9-10.8 10.8-10.8z"/><path d="m246.4 458.8-12.4 21.5c-7.8 13.5 2 30.4 17.6 30.4h24.9c15.6 0 25.4-16.9 17.6-30.4l-12.4-21.5c-7.9-13.5-27.5-13.5-35.3 0z"/><path d="m281.6 53.2 12.4-21.5c7.8-13.5-2-30.4-17.6-30.4h-24.9c-15.6 0-25.4 16.9-17.6 30.4l12.4 21.5c7.9 13.5 27.5 13.5 35.3 0z"/><path d="m56 238.4-21.6-12.4c-13.5-7.8-30.4 2-30.4 17.6v24.9c0 15.5 16.9 25.3 30.4 17.5l21.6-12.4c13.5-7.8 13.5-27.4 0-35.2z"/><path d="m472 273.6 21.5 12.4c13.5 7.8 30.4-2 30.4-17.6v-24.9c0-15.6-16.9-25.4-30.4-17.6l-21.5 12.5c-13.5 7.8-13.5 27.4 0 35.2z"/></g></svg>