<svg clip-rule="evenodd" fill-rule="evenodd" stroke-linejoin="round" stroke-miterlimit="1.41421" viewBox="0 0 741 595" xmlns="http://www.w3.org/2000/svg"><g fill="#777" fill-rule="nonzero"><path d="m702.687 421.154h-13.537v-40.613c0-47.269-38.47-85.738-85.738-85.738-47.269 0-85.738 38.469-85.738 85.738v40.613h-13.538c-14.948 0-27.075 12.127-27.075 27.075v108.301c0 14.948 12.127 27.075 27.075 27.075h198.551c14.948 0 27.076-12.127 27.076-27.075v-108.301c0-14.948-12.128-27.075-27.076-27.075zm-58.663 0h-81.225v-40.613c0-22.393 18.219-40.613 40.613-40.613 22.393 0 40.612 18.22 40.612 40.613z"/><path d="m457.047 452.8c-.099 34.651-.094 69.302.015 103.953.083 8.848 2.719 17.056 7.112 24.047h-411.674c-8.8 0-16-7.2-16-16v-32c0-8.8 7.2-16 16-16h272v-64zm147.453-384c22.101.001 40 17.9 40 40v174.66c-12.806-5.57-26.669-8.667-40.748-8.734-7.76-.012-15.598.826-23.252 2.515v-144.441h-448v352h-64v-376c0-22.1 17.899-39.999 40-40z"/></g></svg>