<svg clip-rule="evenodd" fill-rule="evenodd" stroke-linejoin="round" stroke-miterlimit="1.41421" viewBox="0 0 448 512" xmlns="http://www.w3.org/2000/svg"><path d="m398.104 36.958c25.914 0 44.938 19.024 44.938 44.938v348.208c0 25.914-19.024 44.938-44.938 44.938h-348.208c-25.914 0-44.938-19.024-44.938-44.938v-348.208c0-25.914 19.024-44.938 44.938-44.938zm-116.908 219.042 85.837-85.837c10.548-10.547 10.548-27.612 0-38.159l-19.037-19.037c-10.547-10.548-27.612-10.548-38.159 0l-85.837 85.837-85.837-85.837c-10.547-10.548-27.612-10.548-38.159 0l-19.037 19.122c-10.548 10.548-10.548 27.612 0 38.16l85.837 85.751-85.837 85.837c-10.548 10.547-10.548 27.612 0 38.159l19.037 19.037c10.547 10.548 27.612 10.548 38.159 0l85.837-85.837 85.837 85.837c10.547 10.548 27.612 10.548 38.159 0l19.037-19.037c10.548-10.547 10.548-27.612 0-38.159z" fill="#d9534f" fill-rule="nonzero"/></svg>