<svg enable-background="new 0 0 512 512" viewBox="0 0 512 512" xmlns="http://www.w3.org/2000/svg"><path d="m444.8 291.1 42.6 24.6c4.9 2.8 7.1 8.6 5.5 14-11.1 35.6-30 67.8-54.7 94.6-3.8 4.1-10 5.1-14.8 2.3l-42.6-24.6c-17.9 15.4-38.5 27.3-60.8 35.1v49.2c0 5.6-3.9 10.5-9.4 11.7-35 7.9-72.5 8.3-109.2 0-5.5-1.2-9.4-6.1-9.4-11.7v-49.2c-22.2-7.9-42.8-19.8-60.8-35.1l-42.6 24.6c-4.9 2.8-11 1.9-14.8-2.3-24.7-26.7-43.6-58.9-54.7-94.6-1.7-5.4.6-11.2 5.5-14l42.6-24.6c-4.3-23.2-4.3-47 0-70.2l-42.6-24.6c-4.9-2.8-7.1-8.6-5.5-14 11.1-35.6 30-67.8 54.7-94.6 3.8-4.1 10-5.1 14.8-2.3l42.6 24.6c17.9-15.4 38.5-27.3 60.8-35.1v-49.1c0-5.6 3.9-10.5 9.4-11.7 35-7.8 72.5-8.3 109.2 0 5.5 1.2 9.4 6.1 9.4 11.7v49.2c22.2 7.9 42.8 19.8 60.8 35.1l42.6-24.6c4.9-2.8 11-1.9 14.8 2.3 24.7 26.7 43.6 58.9 54.7 94.6 1.7 5.4-.6 11.2-5.5 14l-42.6 24.6c4.3 23.1 4.3 46.9 0 70.1zm-108.8-35.1c0-44.1-35.9-80-80-80s-80 35.9-80 80 35.9 80 80 80 80-35.9 80-80z" fill="#777"/></svg>