<svg enable-background="new 0 0 640 512" viewBox="0 0 640 512" xmlns="http://www.w3.org/2000/svg"><g fill="#777"><path d="m205.1 326.2-50.9 50.9c-6.2 6.2-6.2 16.4 0 22.6l11.3 11.3c6.2 6.2 16.4 6.2 22.6 0l50.9-50.9 50.9 50.9c6.2 6.2 16.4 6.2 22.6 0l11.3-11.3c6.2-6.2 6.2-16.4 0-22.6l-50.9-50.9 50.8-50.9c6.2-6.2 6.2-16.4 0-22.6l-11.3-11.3c-6.2-6.2-16.4-6.2-22.6 0l-50.9 50.9-50.9-50.9c-6.2-6.2-16.4-6.2-22.6 0l-11.3 11.3c-6.2 6.2-6.2 16.4 0 22.6z"/><path d="m427.3 144.4h-376c-18.2 0-33.2 14.9-33.2 33.2v293.4c0 20.3 16.6 36.8 36.8 36.8h371.6c18.3 0 33.2-15 33.2-33.2v-297.7c.1-17.8-14.5-32.5-32.4-32.5zm-13.7 322.5h-350.3v-282.5h350.3z"/><path d="m508.9 73.7h-376c-18.2 0-33.2 14.9-33.2 33.2v24.5h45.1v-17.7h350.3v282.5h-19.1v41h32c18.3 0 33.2-15 33.2-33.2v-297.8c.2-17.9-14.5-32.5-32.3-32.5z"/><path d="m589.4 4.1h-376c-18.2 0-33.2 14.9-33.2 33.2v24.5h45.1v-17.8h350.3v282.5h-19.1v41h32c18.3 0 33.2-15 33.2-33.2v-297.7c.2-17.9-14.5-32.5-32.3-32.5z"/></g></svg>