<svg enable-background="new 0 0 640 512" viewBox="0 0 640 512" xmlns="http://www.w3.org/2000/svg"><g fill="#777"><path d="m273.5 256.1-70 70c-8.5 8.5-8.5 22.6 0 31.1l15.5 15.5c8.5 8.5 22.6 8.5 31.1 0l70-70 70 70c8.5 8.5 22.6 8.5 31.1 0l15.5-15.5c8.5-8.5 8.5-22.6 0-31.1l-70-70 69.9-70c8.5-8.5 8.5-22.6 0-31.1l-15.5-15.5c-8.5-8.5-22.6-8.5-31.1 0l-70 70-70-70c-8.5-8.5-22.6-8.5-31.1 0l-15.5 15.5c-8.5 8.5-8.5 22.6 0 31.1z"/><path d="m579.1 6.1h-517.1c-25 0-45.7 20.5-45.7 45.7v403.5c0 27.9 22.8 50.6 50.6 50.6h511.1c25.2 0 45.7-20.6 45.7-45.7v-409.4c.1-24.5-20-44.7-44.6-44.7zm-18.8 443.5h-481.8v-388.5h481.8z"/></g></svg>