<svg clip-rule="evenodd" fill-rule="evenodd" stroke-linejoin="round" stroke-miterlimit="1.41421" viewBox="0 0 762 613" xmlns="http://www.w3.org/2000/svg"><g fill="#777" fill-rule="nonzero"><path d="m722.84 437.973h-13.537v-40.613c0-47.268-38.47-85.738-85.739-85.738-47.268 0-85.738 38.47-85.738 85.738v40.613h-13.537c-14.948 0-27.075 12.128-27.075 27.075v108.301c0 14.948 12.127 27.075 27.075 27.075h198.551c14.948 0 27.075-12.127 27.075-27.075v-108.301c0-14.947-12.127-27.075-27.075-27.075zm-58.663 0h-81.225v-40.613c0-22.393 18.219-40.612 40.612-40.612 22.394 0 40.613 18.219 40.613 40.612z"/><path d="m587.967 59.004c26.501.001 48 21.501 48 48v185.337c-3.989-.507-8.017-.777-12.062-.796-11.739-.018-23.657 1.911-34.845 5.782-5.946 2.058-11.663 4.677-17.093 7.784v-182.107h-448v288h393.806c.027 2.445.053 4.891.053 7.334l-.096.013c-22.786 3.264-40.305 24.018-40.516 46.319-.01 3.445-.02 6.889-.029 10.334h-81.218l16 48h65.163c.003 16 .029 32 .077 48h-265.24c-13.3 0-24-10.7-24-24 0-13.299 10.7-23.999 24-24h72l16-48h-192c-26.5 0-48-21.5-48-48v-320c0-26.499 21.5-47.999 48-48z"/></g></svg>