<svg clip-rule="evenodd" fill-rule="evenodd" stroke-linejoin="round" stroke-miterlimit="1.41421" viewBox="0 0 762 613" xmlns="http://www.w3.org/2000/svg"><path d="m60.222 105.591c.005-.133.012-.267.019-.4l-49.358-38.352c-8.647-6.719-10.213-19.194-3.494-27.841l24.347-31.334c6.719-8.647 19.194-10.212 27.841-3.493l71.5 55.556h457.098c26.501.001 48 21.501 48 48v320c0 7.448-1.699 14.501-4.729 20.793l116.577 90.582c8.647 6.718 10.212 19.193 3.494 27.84l-24.347 31.334c-6.719 8.647-19.194 10.213-27.841 3.494l-162.215-126.043h-.534l-82.367-64h.534l-330.572-256.859v.416l-63.953-49.693zm-.047 100.468 64 49.729v155.939h200.691l82.367 64h-11.058l16 48h56.833l38.448 29.875c-2.605 10.44-12.009 18.125-23.281 18.125h-272c-13.3 0-24-10.7-24-24s10.699-24 24-24h72l16-48h-192c-26.501 0-48-21.5-48-48zm512-82.332h-358.732l358.732 278.738z" fill="#777" fill-rule="nonzero"/></svg>