<svg clip-rule="evenodd" fill-rule="evenodd" stroke-linejoin="round" stroke-miterlimit="1.41421" viewBox="0 0 384 512" xmlns="http://www.w3.org/2000/svg"><g fill="#777" fill-rule="nonzero"><path d="m353.408 459.703c7.399 12.205-1.902 27.512-16.628 27.512h-191.65c-14.726 0-23.956-15.307-16.628-27.512l95.825-159.067c7.398-12.205 25.858-12.205 33.186 0zm-112.453-32.906c-10.146 0-18.39 7.89-18.39 17.6 0 9.709 8.244 17.599 18.39 17.599s18.39-7.89 18.39-17.599c0-9.71-8.244-17.6-18.39-17.6zm-17.474-63.249 2.959 51.988c.141 2.428 2.255 4.316 4.792 4.316h19.376c2.537 0 4.65-1.888 4.791-4.316l2.96-51.988c.14-2.63-2.044-4.855-4.792-4.855h-25.295c-2.748.067-4.932 2.225-4.791 4.855z"/><path d="m224 0v136c0 13.2 10.8 24 24 24h136v328c0 13.3-10.7 24-24 24h-336c-13.3 0-24-10.7-24-24v-464c0-13.3 10.7-24 24-24zm122.802 493.552c16.297-.001 26.589-16.94 18.402-30.446l-106.123-176.034c-8.11-13.506-28.539-13.506-36.727 0l-106.045 176.034c-8.11 13.507 2.105 30.446 18.402 30.446zm37.198-365.552h-128v-128h6.1c6.4 0 12.5 2.5 17 7l97.9 98c4.5 4.5 7 10.6 7 16.9z"/></g></svg>