<svg clip-rule="evenodd" fill-rule="evenodd" stroke-linejoin="round" stroke-miterlimit="1.41421" viewBox="0 0 640 512" xmlns="http://www.w3.org/2000/svg"><g fill="#777" fill-rule="nonzero"><path d="m464 192h-192l-64-64h-160c-26.5 0-48 21.5-48 48v288c0 26.5 21.5 48 48 48h416c26.5 0 48-21.5 48-48v-224c0-26.5-21.5-48-48-48z"/><path d="m327.686 0 64 64h192c26.5 0 48 21.5 48 48v224c0 26.5-21.5 48-48 48h-26.606v-161.022c0-29.491-23.928-53.419-53.42-53.419h-213.677l-71.225-71.225h-99.072v-50.334c0-26.5 21.499-48 48-48h160z"/></g></svg>