<svg enable-background="new 0 0 448 512" viewBox="0 0 448 512" xmlns="http://www.w3.org/2000/svg"><path d="m152 416h-24l26.6-80.8h138.2l26.6 80.8h-23.4c-8.8 0-16 7.2-16 16v32c0 8.8 7.2 16 16 16h136c8.8 0 16-7.2 16-16v-32c0-8.8-7.2-16-16-16h-26.7l-129.8-373.3c-2.2-6.4-8.3-10.7-15.1-10.7h-72.8c-6.8 0-12.9 4.3-15.1 10.7l-129.8 373.3h-26.7c-8.8 0-16 7.2-16 16v32c0 8.8 7.2 16 16 16h136c8.8 0 16-7.2 16-16v-32c0-8.8-7.2-16-16-16zm64.4-271.8c4.3-15.2 6.6-28.2 7.6-34.6.8 6.5 2.9 19.5 7.7 34.7l41.3 124h-98.6z" fill="#777"/></svg>