<svg enable-background="new 0 0 496 512" viewBox="0 0 496 512" xmlns="http://www.w3.org/2000/svg"><path d="m248 8c-137 0-248 111-248 248s111 248 248 248 248-111 248-248-111-248-248-248zm82.3 357.6c-3.9 3.9-8 8-11.3 11.3-3 3-5.1 6.7-6.2 10.7-1.5 5.7-2.7 11.4-4.8 16.9l-17.4 46.9c-13.8 3-28 4.7-42.6 4.7v-27.4c1.7-12.6-7.6-36.3-22.6-51.3-6-6-9.4-14.1-9.4-22.6v-32c0-11.6-6.3-22.3-16.5-28-14.4-8-34.8-19.1-48.8-26.1-11.5-5.8-22.1-13.1-31.7-21.7l-.8-.7c-6.8-6.2-12.9-13.1-18.1-20.7-9.4-13.8-24.7-36.4-34.6-51.1 20.5-45.5 57.4-82 103.2-101.9l24 12c10.8 5.1 23.3-2.6 23.3-14.5v-11.3c8-1.3 16.1-2.1 24.4-2.4l28.3 28.3c6.3 6.3 6.3 16.4 0 22.6l-4.7 4.7-10.3 10.3c-3.1 3.1-3.1 8.2 0 11.3l4.7 4.7c3.1 3.1 3.1 8.2 0 11.3l-8 8c-1.5 1.5-3.5 2.3-5.7 2.3h-9c-2.1 0-4.1.8-5.6 2.3l-9.9 9.6c-2.5 2.4-3.1 6.2-1.6 9.3l15.6 31.2c2.7 5.3-1.2 11.6-7.1 11.6h-5.6c-1.9 0-3.8-.7-5.2-2l-9.3-8.1c-4.3-3.7-10.2-4.9-15.6-3.1l-31.2 10.4c-4.9 1.6-8.2 6.2-8.2 11.3 0 4.5 2.6 8.7 6.6 10.7l11.1 5.5c9.4 4.7 19.8 7.2 30.3 7.2s22.6 27.3 32 32h66.8c8.5 0 16.6 3.4 22.6 9.4l13.7 13.7c5.7 5.7 8.9 13.5 8.9 21.6 0 12.5-4.9 24.4-13.7 33.1zm86.7-91.3c-5.8-1.5-10.8-5-14.1-10l-18-27c-5.4-8.1-5.4-18.6 0-26.6l19.6-29.4c2.3-3.5 5.5-6.3 9.2-8.1l13-6.5c13.5 26.9 21.3 57.2 21.3 89.3 0 8.7-.7 17.2-1.8 25.5z" fill="#777"/></svg>