<svg clip-rule="evenodd" fill-rule="evenodd" stroke-linecap="round" stroke-linejoin="round" stroke-miterlimit="1.5" viewBox="0 0 48 48" xmlns="http://www.w3.org/2000/svg"><path d="m3.39 3.39h41.22v41.22h-41.22z" fill="none" stroke="#777" stroke-width="3.5"/><g fill="#777" fill-rule="nonzero"><path d="m18.037 31.799-3.214.616c-.108-.681-.354-1.194-.737-1.539s-.88-.517-1.491-.517c-.812 0-1.46.297-1.944.892-.483.596-.725 1.591-.725 2.986 0 1.552.245 2.648.737 3.288.491.64 1.15.96 1.978.96.619 0 1.126-.187 1.52-.56.395-.373.674-1.016.836-1.927l3.203.579c-.333 1.559-.971 2.737-1.915 3.534-.944.796-2.209 1.194-3.795 1.194-1.802 0-3.239-.603-4.311-1.81-1.071-1.207-1.607-2.877-1.607-5.011 0-2.159.538-3.84 1.613-5.043 1.075-1.202 2.53-1.803 4.363-1.803 1.501 0 2.695.342 3.58 1.028.886.685 1.523 1.73 1.909 3.133z"/><path d="m26.161 27.933v2.758h-2.228v5.27c0 1.067.021 1.689.063 1.866.043.176.14.322.291.437.15.115.334.172.551.172.301 0 .739-.111 1.311-.332l.279 2.684c-.759.345-1.617.517-2.577.517-.588 0-1.118-.105-1.589-.314-.472-.209-.819-.48-1.039-.813-.221-.332-.373-.782-.458-1.348-.07-.402-.105-1.215-.105-2.438v-5.701h-1.497v-2.758h1.497v-2.598l3.273-2.019v4.617z"/><path d="m31.545 41.009h-3.261v-13.076h3.029v1.859c.518-.878.985-1.457 1.399-1.736.413-.279.883-.418 1.409-.418.743 0 1.459.217 2.147.652l-1.009 3.017c-.55-.378-1.06-.567-1.532-.567-.457 0-.843.134-1.161.401-.317.266-.566.749-.748 1.446-.182.698-.273 2.159-.273 4.384z"/><path d="m37.673 22.959h3.261v18.051h-3.261z"/></g></svg>