<svg enable-background="new 0 0 352 512" viewBox="0 0 352 512" xmlns="http://www.w3.org/2000/svg"><path d="m336 192h-16c-8.8 0-16 7.2-16 16v48c0 74.8-64.5 134.8-140.8 127.4-66.5-6.5-115.2-66.3-115.2-133.1v-42.3c0-8.8-7.2-16-16-16h-16c-8.8 0-16 7.2-16 16v40.2c0 89.6 64 169.6 152 181.7v34.1h-56c-8.8 0-16 7.2-16 16v16c0 8.8 7.2 16 16 16h160c8.8 0 16-7.2 16-16v-16c0-8.8-7.2-16-16-16h-56v-33.8c85.7-11.8 152-85.3 152-174.2v-48c0-8.8-7.2-16-16-16zm-160 160c53 0 96-43 96-96h-85.3c-5.9 0-10.7-3.6-10.7-8v-16c0-4.4 4.8-8 10.7-8h85.3v-32h-85.3c-5.9 0-10.7-3.6-10.7-8v-16c0-4.4 4.8-8 10.7-8h85.3v-32h-85.3c-5.9 0-10.7-3.6-10.7-8v-16c0-4.4 4.8-8 10.7-8h85.3c0-53-43-96-96-96s-96 43-96 96v160c0 53 43 96 96 96z" fill="#777"/></svg>