<svg enable-background="new 0 0 352 591.1" viewBox="0 0 352 591.1" xmlns="http://www.w3.org/2000/svg"><g fill="#777"><path d="m176 431.1c53 0 96-43 96-96v-104.1h-192v104.1c0 53 43 96 96 96z"/><path d="m336 271.1h-16c-8.8 0-16 7.2-16 16v48c0 74.8-64.5 134.8-140.8 127.4-66.5-6.5-115.2-66.3-115.2-133.1v-42.3c0-8.8-7.2-16-16-16h-16c-8.8 0-16 7.2-16 16v40.2c0 89.6 64 169.6 152 181.7v34.1h-56c-8.8 0-16 7.2-16 16v16c0 8.8 7.2 16 16 16h160c8.8 0 16-7.2 16-16v-16c0-8.8-7.2-16-16-16h-56v-33.8c85.7-11.8 152-85.3 152-174.2v-48c0-8.8-7.2-16-16-16z"/><path d="m53.3 80.9 28.9 92.1 188.4.3 28.9-92.2c2.7-8.6-6-16.3-14.2-12.6l-76.5 34.7-23-57.8c-3.5-8.8-15.9-8.8-19.4 0l-22.8 57.2-76-34.5c-8.3-3.5-17 4.2-14.3 12.8z"/><circle cx="176.5" cy="17" r="17"/><circle cx="308.5" cy="51" r="17"/><circle cx="43.5" cy="51" r="17"/><path d="m284.3 204.3v-4.3c0-6.6-5.4-12-12-12h-192.6c-6.6 0-12 5.4-12 12v4.2c0 6.6 5.4 12 12 12h192.7c6.5.1 11.9-5.3 11.9-11.9z"/></g></svg>