<svg enable-background="new 0 0 697.9 591.1" viewBox="0 0 697.9 591.1" xmlns="http://www.w3.org/2000/svg"><g fill="#777"><path d="m413.8 398.6s24-39.2 24-63.5v-104.1h-192v37.8z"/><path d="m477 447.5s26.8-35 34-64.2c5-20.1 6.3-37.2 6.7-48.2v-48c0-8.8-7.2-16-16-16h-16c-8.8 0-16 7.2-16 16v48c.5 8.7 0 21-4.7 34.4-9.5 27-26 48.7-26 48.7z"/><path d="m376.1 458.4s-29.3 5.7-47.1 4.1c-43.7-4.1-112.7-39.6-115.2-129.4 0-1.2-48-37.1-48-37.1v31.3c0 89.6 64 169.6 152 181.7v34.1h-56c-8.8 0-16 7.2-16 16v16c0 8.8 7.2 16 16 16h160c8.8 0 16-7.2 16-16v-16c0-8.8-7.2-16-16-16h-56v-33.8c6.4-1.1 14.9-2.7 24.8-5.3 18.8-4.8 29.5-11.5 29.5-11.5z"/><path d="m219.1 80.9 28.9 92.1 188.4.3 28.9-92.2c2.7-8.6-6-16.3-14.2-12.6l-76.5 34.7-23-57.8c-3.5-8.8-15.9-8.8-19.4 0l-22.8 57.2-76-34.5c-8.3-3.5-17 4.2-14.3 12.8z"/><circle cx="342.3" cy="17" r="17"/><circle cx="474.3" cy="51" r="17"/><circle cx="209.3" cy="51" r="17"/><path d="m450.1 204.3v-4.3c0-6.6-5.4-12-12-12h-192.6c-6.6 0-12 5.4-12 12v4.2c0 6.6 5.4 12 12 12h192.7c6.5.1 11.9-5.3 11.9-11.9z"/><path d="m693.2 558.2-17.3 23c-7.6 10-21.7 11.9-31.5 4.2l-635.7-504.2c-9.8-7.8-11.5-22.3-4.1-32.4l17.3-23c7.6-10 21.7-11.9 31.5-4.2l635.7 504.1c9.8 8 11.6 22.5 4.1 32.5z"/></g></svg>