<svg clip-rule="evenodd" fill-rule="evenodd" stroke-linejoin="round" stroke-miterlimit="1.41421" viewBox="0 0 698 592" xmlns="http://www.w3.org/2000/svg"><g fill="#777" fill-rule="nonzero"><path d="m650.74 408.571h-13.537v-40.612c0-47.269-38.47-85.739-85.739-85.739-47.268 0-85.738 38.47-85.738 85.739v40.612h-13.537c-14.948 0-27.075 12.128-27.075 27.076v108.3c0 14.948 12.127 27.075 27.075 27.075h198.551c14.948 0 27.075-12.127 27.075-27.075v-108.3c0-14.948-12.127-27.076-27.075-27.076zm-58.663 0h-81.225v-40.612c0-22.394 18.219-40.613 40.612-40.613 22.394 0 40.613 18.219 40.613 40.613z"/><path d="m421.7 591.1h-160c-8.8 0-16-7.2-16-16v-16c0-8.8 7.2-16 16-16h56v-34.1c-88-12.1-152-92.1-152-181.7v-40.2c0-8.8 7.2-16 16-16h16c8.8 0 16 7.2 16 16v42.3c0 66.8 48.7 126.6 115.2 133.1 27.814 2.698 54.059-3.561 76.184-16.229-.045 17.621-.062 35.242-.052 52.863-12.49 4.833-25.665 8.284-39.332 10.166v33.8h39.411l.003 1.07c.179 18.925 12.035 34.92 27.774 42.341-2.89 2.835-6.844 4.589-11.188 4.589zm16-360.1v104.1c0 53-43 96-96 96s-96-43-96-96v-104.1zm.3-43c6.6 0 12 5.4 12 12v4.3c0 6.6-5.4 12-11.9 11.9h-192.7c-6.6 0-12-5.4-12-12v-4.2c0-6.6 5.4-12 12-12zm-219-107.1 28.9 92.1 188.4.3 28.9-92.2c2.7-8.6-6-16.3-14.2-12.6l-76.5 34.7-23-57.8c-3.5-8.8-15.9-8.8-19.4 0l-22.8 57.2-76-34.5c-8.3-3.5-17 4.2-14.3 12.8zm255.2-46.9c9.383 0 17 7.617 17 17s-7.617 17-17 17-17-7.617-17-17 7.617-17 17-17zm-265 0c9.383 0 17 7.617 17 17s-7.617 17-17 17-17-7.617-17-17 7.617-17 17-17zm133-34c9.383 0 17 7.617 17 17s-7.617 17-17 17-17-7.617-17-17 7.617-17 17-17z"/></g></svg>