<svg enable-background="new 0 0 640 512" viewBox="0 0 640 512" xmlns="http://www.w3.org/2000/svg"><path d="m633.8 458.1-157.8-122c12.6-24 20-51.1 20-80.1v-48c0-8.8-7.2-16-16-16h-16c-8.8 0-16 7.2-16 16v48c0 17.9-4 34.8-10.7 50.2l-26.5-20.5c3.1-9.4 5.3-19.2 5.3-29.7v-160c0-53-43-96-96-96s-96 43-96 96v45.4l-178.6-138c-7-5.4-17-4.2-22.5 2.8l-19.6 25.3c-5.4 7-4.2 17 2.8 22.5l588.4 454.7c7 5.4 17 4.2 22.5-2.8l19.6-25.3c5.3-7 4.1-17.1-2.9-22.5zm-233.8 5.9h-56v-33.8c11.7-1.6 22.9-4.5 33.7-8.3l-50.1-38.7c-6.7.4-13.4.9-20.4.2-55.9-5.5-98.7-48.6-111.2-101.9l-52-40.2v6.9c0 89.6 64 169.6 152 181.7v34.1h-56c-8.8 0-16 7.2-16 16v16c0 8.8 7.2 16 16 16h160c8.8 0 16-7.2 16-16v-16c0-8.8-7.2-16-16-16z" fill="#777"/></svg>