<svg clip-rule="evenodd" fill-rule="evenodd" stroke-linejoin="round" stroke-miterlimit="1.41421" viewBox="0 0 640 512" xmlns="http://www.w3.org/2000/svg"><g fill="#777" fill-rule="nonzero"><path d="m172.715 192c8.8 0 16 7.2 16 16v42.3c0 66.8 48.7 126.6 115.2 133.1 12.132 1.177 23.966.649 35.289-1.371-.048 28.041-.028 56.082.06 84.123.216 22.933 12.581 41.566 33.224 45.848h-135.773c-8.8 0-16-7.2-16-16v-16c0-8.8 7.199-16 16-16h56v-34.1c-88-12.1-152-92.1-152-181.7v-40.2c0-8.8 7.199-16 16-16zm167.389 157.128c-7.487 1.876-15.322 2.872-23.389 2.872-53 0-96-43-96-96v-160c0-53 43-96 96-96s96 43 96 96v117.74c-17.054 16.509-28.754 38.533-31.902 62.029-1.544 11.528-.937 23.368-.937 35.149l-.096.013c-19.986 2.863-35.92 19.181-39.676 38.197z"/><path d="m589.89 335.475h-13.538v-40.612c0-47.269-38.469-85.738-85.738-85.738s-85.738 38.469-85.738 85.738v40.612h-13.538c-14.947 0-27.075 12.128-27.075 27.076v108.3c0 14.948 12.128 27.076 27.075 27.076h198.552c14.948 0 27.075-12.128 27.075-27.076v-108.3c0-14.948-12.127-27.076-27.075-27.076zm-58.663 0h-81.226v-40.612c0-22.394 18.22-40.613 40.613-40.613 22.394 0 40.613 18.219 40.613 40.613z"/></g></svg>