<svg clip-rule="evenodd" fill-rule="evenodd" stroke-linejoin="round" stroke-miterlimit="1.41421" viewBox="0 0 512 512" xmlns="http://www.w3.org/2000/svg"><path d="m268.363 405.235 92.347 92.347-29.734 12.932c-9.2 4-19.4-.6-23.3-9.7zm-130.687-223.011v-.976l-123.719-123.719c-6.274-6.274-6.196-16.538.173-22.908l23.081-23.081c6.369-6.369 16.634-6.447 22.908-.173l77.557 77.557v-70.61c0-16.4 19.9-24.4 30.3-12.9l284.4 292.6c11.5 11.2 3 31.1-12.5 31.1h-62.01l103.158 103.158c6.274 6.274 6.196 16.539-.173 22.908l-23.081 23.081c-6.37 6.369-16.634 6.447-22.908.173l-67.527-67.527.679 1.655zm0 92.324 107.168 107.168-76.968 79.098c-11.5 11.9-30.2 2.8-30.2-12.8z" fill="#777" fill-rule="nonzero"/></svg>