<svg clip-rule="evenodd" fill-rule="evenodd" stroke-linejoin="round" stroke-miterlimit="1.41421" viewBox="0 0 512 512" xmlns="http://www.w3.org/2000/svg"><g fill="#777" fill-rule="nonzero"><path d="m474.055 338.446h-13.537v-40.612c0-47.269-38.47-85.739-85.738-85.739-47.269 0-85.738 38.47-85.738 85.739v40.612h-13.538c-14.948 0-27.075 12.128-27.075 27.076v108.3c0 14.948 12.127 27.075 27.075 27.075h198.551c14.948 0 27.076-12.127 27.076-27.075v-108.3c0-14.948-12.128-27.076-27.076-27.076zm-58.662 0h-81.226v-40.612c0-22.394 18.219-40.613 40.613-40.613 22.393 0 40.613 18.219 40.613 40.613z"/><path d="m237.708 501.253-23.611 10.27c-9.2 4-19.4-.6-23.3-9.7l-53.1-129.1-86.7 89.1c-11.5 11.9-30.2 2.8-30.2-12.8v-429.7c0-16.4 19.9-24.4 30.3-12.9l232.207 238.902c-6.869 11.778-11.514 24.813-13.325 38.337-1.544 11.528-.937 23.368-.937 35.149l-.097.013c-9.118 1.306-17.392 5.413-24.052 11.299h-27.996l11.98 29.198c-.277 1.922-.429 3.866-.447 5.822-.114 36.3-.114 72.602 0 108.902.096 10.22 3.598 19.586 9.278 27.208z"/></g></svg>