<svg enable-background="new 0 0 512 512" viewBox="0 0 512 512" xmlns="http://www.w3.org/2000/svg"><path d="m167 309.3c-40.1 2.6-76.5 17.9-97.2 72.3-2.3 6.2-8 10-14.6 10-11.1 0-45.4-27.6-55.2-34.3 0 82.3 37.9 154.7 128 154.7 75.9 0 128-43.8 128-120.2 0-3.1-.6-6.1-1-9.1zm290.9-309.3c-15.2 0-29.4 6.7-40.2 16.5-204.4 182.6-225.7 186.8-225.7 240.6 0 13.7 3.3 26.8 8.7 38.7l63.8 53.2c7.2 1.8 14.6 3 22.4 3 62.1 0 98.1-45.5 211.2-256.5 7.4-14.3 13.9-29.8 13.9-46 0-28.9-26-49.5-54.1-49.5z" fill="#777"/></svg>