<svg clip-rule="evenodd" fill-rule="evenodd" stroke-linejoin="round" stroke-miterlimit="1.41421" viewBox="0 0 640 512" xmlns="http://www.w3.org/2000/svg"><g fill="#777" fill-rule="nonzero"><path d="m427.4 144.4h-376c-18.2 0-33.2 14.9-33.2 33.2v293.4c0 20.3 16.6 36.8 36.8 36.8h371.6c18.3 0 33.2-15 33.2-33.2v-297.7c.1-17.8-14.5-32.5-32.4-32.5zm-13.7 322.5h-350.3v-282.5h350.3z"/><path d="m509 73.7h-376c-18.2 0-33.2 14.9-33.2 33.2v24.5h45.1v-17.7h350.3v282.5h-19.1v41h32c18.3 0 33.2-15 33.2-33.2v-297.8c.2-17.9-14.5-32.5-32.3-32.5z"/><path d="m589.5 4.1h-376c-18.2 0-33.2 14.9-33.2 33.2v24.5h45.1v-17.8h350.3v282.5h-19.1v41h32c18.3 0 33.2-15 33.2-33.2v-297.7c.2-17.9-14.5-32.5-32.3-32.5z"/><path d="m164.774 320.66 67.841-67.831-22.24-22.241-31.093 31.093c-.748.75-1.766 1.171-2.825 1.171-1.06 0-2.077-.421-2.826-1.171l-5.651-5.651c-1.562-1.563-1.562-4.094 0-5.651l31.093-31.093-16.958-16.963c-6.246-6.245-16.368-6.245-22.613 0l-45.223 45.223c-6.24 6.245-6.246 16.368 0 22.613zm195.826-58.879c9.457-9.456 9.452-24.786 0-34.243l-22.81-22.81c-9.457-9.457-24.792-9.457-34.254 0l-23.198 23.193 57.063 57.064zm-91.67-22.447-149.716 149.696-9.457 54.16c-1.275 7.304 5.087 13.666 12.396 12.38l54.165-9.497 149.676-149.681zm94.079 143.884-16.957-16.958-31.093 31.092c-1.562 1.563-4.093 1.563-5.651 0l-5.651-5.65c-1.557-1.563-1.557-4.094 0-5.651l31.093-31.093-22.251-22.251-67.841 67.831 50.515 50.511c6.246 6.245 16.368 6.245 22.614 0l45.222-45.218c6.246-6.245 6.246-16.368 0-22.613z"/></g></svg>