<svg clip-rule="evenodd" fill-rule="evenodd" stroke-linejoin="round" stroke-miterlimit="1.41421" viewBox="0 0 496 512" xmlns="http://www.w3.org/2000/svg"><g fill="#777"><path d="m447.288 360-57.233 18.842 70.388 74.922c3.615 3.897 2.892 9.871-1.213 13.387l-23.1 19.186c-4.319 3.587-10.561 3.152-14.127-.598l-67.824-72.033-32.446 58.901c-4.291 7.852-15.841 6.73-18.348-.887l-69.07-209.805c-2.637-8.008 6.812-15.448 14.271-11.68l200.446 92.36c8.004 3.426 6.617 14.652-1.744 17.405z" fill-rule="nonzero"/><path d="m286.909 464.776c-12.622 2.303-25.626 3.506-38.909 3.506-119.09 0-215.777-96.687-215.777-215.777 0-119.091 96.687-215.777 215.777-215.777s215.777 96.686 215.777 215.777c0 27.586-5.188 53.969-14.64 78.227l-31.597-14.558c7.452-19.81 11.529-41.267 11.529-63.669 0-99.935-81.134-181.069-181.069-181.069s-181.069 81.134-181.069 181.069 81.134 181.069 181.069 181.069c9.498 0 18.826-.733 27.931-2.145zm-24.717-75.079c-4.666.478-9.401.723-14.192.723-76.117 0-137.915-61.798-137.915-137.915s61.798-137.915 137.915-137.915 137.915 61.798 137.915 137.915c0 15.956-2.716 31.284-7.711 45.544l-36.947-17.025c2.759-9.022 4.244-18.598 4.244-28.519 0-53.812-43.689-97.501-97.501-97.501s-97.501 43.689-97.501 97.501 43.689 97.501 97.501 97.501c.375 0 .749-.002 1.123-.006z"/></g></svg>