<svg enable-background="new 0 0 576 512" viewBox="0 0 576 512" xmlns="http://www.w3.org/2000/svg"><g fill="#777"><path d="m568.6 432.3-120.3-92.3h70.9c.8 0 1.5 0 2.3-.1h43.9c5.9 0 10.6-4.8 10.6-10.6v-23.9c0-5.9-4.8-10.6-10.6-10.6h-17.7v-210.2h14.2c7.8 0 14.2-6.4 14.2-14.2v-17.8c0-7.8-6.4-14.2-14.2-14.2h-482.5c-5.2 0-9.8 2.9-12.3 7.1l-21-16.2c-8.3-6.4-20.4-4.9-26.9 3.5l-14.6 19.1c-6.4 8.3-4.9 20.4 3.4 26.8l522.4 402.9c8.3 6.4 20.4 4.9 26.9-3.5l14.7-19.1c6.4-8.2 4.9-20.3-3.4-26.7zm-428.4-347.4 361-5.1v213.6l-89.3 1.3h-22.1l-249.6-192.7z"/><path d="m296.1 375.3-55.4 76.8c-5.6 5.6-5.6 14.5 0 20l4.7 5.7c5.6 5.6 14.5 5.6 20 0l55.1-55.1 55.1 55.1c5.6 5.6 14.5 5.6 20 0l6.5-6.6c3-3 4.4-6.9 4.2-10.8z"/><path d="m191.9 294.7h-51.7v-39.9l-46.6-36v75.9h-17.8c-5.9 0-10.6 4.8-10.6 10.6v23.9c0 5.9 4.8 10.6 10.6 10.6h43.9c.7.1 1.5.1 2.3.1h128.6z"/></g></svg>