<svg enable-background="new 0 0 576 512" viewBox="0 0 576 512" xmlns="http://www.w3.org/2000/svg"><path d="m560 64c8.8 0 16-7.2 16-16v-20.1c0-8.8-7.2-16-16-16h-544c-8.8 0-16 7.2-16 16v20.1c0 8.8 7.2 16 16 16h16v236.9h-20c-6.6 0-12 5.4-12 12v27c0 6.6 5.4 12 12 12h49.4c.8.1 1.7.1 2.6.1h200v34.8l-66 91.5c-6.3 6.3-6.3 16.4 0 22.6l5.3 6.4c6.3 6.3 16.4 6.3 22.6 0l62.1-62.1 62.1 62.1c6.3 6.3 16.4 6.3 22.6 0l7.3-7.4c6.3-6.3 6.3-16.4 0-22.6l-68-90.5v-34.8h200c.9 0 1.7 0 2.6-.1h49.4c6.6 0 12-5.4 12-12v-27c0-6.6-5.4-12-12-12h-20v-236.9zm-475.5 236.9v-236.6l407-5.7v240.9l-100.7 1.4z" fill="#777"/></svg>