<svg clip-rule="evenodd" fill-rule="evenodd" stroke-linejoin="round" stroke-miterlimit="1.41421" viewBox="0 0 576 512" xmlns="http://www.w3.org/2000/svg"><g fill="#777" fill-rule="nonzero"><path d="m541.727 344.786h-13.538v-40.613c0-47.269-38.469-85.738-85.738-85.738s-85.738 38.469-85.738 85.738v40.613h-13.538c-14.948 0-27.075 12.127-27.075 27.075v108.301c0 14.948 12.127 27.075 27.075 27.075h198.552c14.947 0 27.075-12.127 27.075-27.075v-108.301c0-14.948-12.128-27.075-27.075-27.075zm-58.663 0h-81.226v-40.613c0-22.393 18.219-40.613 40.613-40.613 22.393 0 40.613 18.22 40.613 40.613z"/><path d="m560 11.9c8.8 0 16 7.2 16 16v20.1c0 8.8-7.2 16-16 16h-16v210.605c-.368-1.269-.76-2.531-1.177-3.785-8.636-25.988-27.715-47.253-51.323-59.876v-152.344l-407 5.7v236.6h252.248c-.322 8.031-.035 16.155-.035 24.251l-.097.013c-22.785 3.264-40.305 24.018-40.515 46.319-.086 27.251-.107 41.502-.064 68.754l-8.037 4.963-62.1 62.1c-6.2 6.3-16.3 6.3-22.6 0l-5.3-6.4c-6.3-6.2-6.3-16.3 0-22.6l66-91.5v-34.8h-200c-.9 0-1.8 0-2.6-.1h-49.4c-6.6 0-12-5.4-12-12v-27c0-6.6 5.4-12 12-12h20v-236.9h-16c-8.8 0-16-7.2-16-16v-20.1c0-8.8 7.2-16 16-16h544z"/></g></svg>