<svg clip-rule="evenodd" fill-rule="evenodd" stroke-linejoin="round" stroke-miterlimit="1.41421" viewBox="0 0 448 512" xmlns="http://www.w3.org/2000/svg"><path d="m427.048 85.417h-7.001v17.502c0 5.776-4.726 10.501-10.501 10.501h-35.004c-5.776 0-10.501-4.725-10.501-10.501v-17.502h-280.032v17.502c0 5.776-4.725 10.501-10.501 10.501h-35.004c-5.775 0-10.501-4.725-10.501-10.501v-17.502h-7.001c-11.638 0-21.002 9.364-21.002 21.002v294.033c0 11.639 9.364 21.003 21.002 21.003h7.001v-17.502c0-5.776 4.726-10.502 10.501-10.502h35.004c5.776 0 10.501 4.726 10.501 10.502v17.502h280.032v-17.502c0-5.776 4.725-10.502 10.501-10.502h35.004c5.775 0 10.501 4.726 10.501 10.502v17.502h7.001c11.638 0 21.002-9.364 21.002-21.003v-294.033c0-11.638-9.364-21.002-21.002-21.002zm-343.039 269.53c0 5.776-4.725 10.501-10.501 10.501h-35.004c-5.775 0-10.501-4.725-10.501-10.501v-35.004c0-5.775 4.726-10.501 10.501-10.501h35.004c5.776 0 10.501 4.726 10.501 10.501zm0-84.009c0 5.775-4.725 10.501-10.501 10.501h-35.004c-5.775 0-10.501-4.726-10.501-10.501v-35.004c0-5.776 4.726-10.501 10.501-10.501h35.004c5.776 0 10.501 4.725 10.501 10.501zm0-84.01c0 5.776-4.725 10.502-10.501 10.502h-35.004c-5.775 0-10.501-4.726-10.501-10.502v-35.004c0-5.775 4.726-10.501 10.501-10.501h35.004c5.776 0 10.501 4.726 10.501 10.501zm336.038 168.019c0 5.776-4.726 10.501-10.501 10.501h-35.004c-5.776 0-10.501-4.725-10.501-10.501v-35.004c0-5.775 4.725-10.501 10.501-10.501h35.004c5.775 0 10.501 4.726 10.501 10.501zm0-84.009c0 5.775-4.726 10.501-10.501 10.501h-35.004c-5.776 0-10.501-4.726-10.501-10.501v-35.004c0-5.776 4.725-10.501 10.501-10.501h35.004c5.775 0 10.501 4.725 10.501 10.501zm0-84.01c0 5.776-4.726 10.502-10.501 10.502h-35.004c-5.776 0-10.501-4.726-10.501-10.502v-35.004c0-5.775 4.725-10.501 10.501-10.501h35.004c5.775 0 10.501 4.726 10.501 10.501z" fill="#777" fill-rule="nonzero" stroke="#777"/></svg>