<svg enable-background="new 0 0 512 512" viewBox="0 0 512 512" xmlns="http://www.w3.org/2000/svg"><g fill="#777"><path d="m508.3 408.1c10.5 18.1-2.7 40.8-23.6 40.8h-272c-20.9 0-34-22.7-23.6-40.8l136-235.9c10.5-18.1 36.7-18.1 47.1 0zm-159.6-48.8c-14.4 0-26.1 11.7-26.1 26.1s11.7 26.1 26.1 26.1 26.1-11.7 26.1-26.1-11.7-26.1-26.1-26.1zm-24.8-93.8 4.2 77.1c.2 3.6 3.2 6.4 6.8 6.4h27.5c3.6 0 6.6-2.8 6.8-6.4l4.2-77.1c.2-3.9-2.9-7.2-6.8-7.2h-35.9c-3.9.1-7 3.3-6.8 7.2z"/><path d="m183.1 389.1 137.8-233.4c5.5-9.6 23.8-14.1 33.4-13.6v-15.4c0-5.6 4.6-10.2 10.2-10.2h34.1c5.6 0 10.2 4.6 10.2 10.2v34.1c0 5.6-4.6 10.2-10.2 10.2h-13.4l15.9 27.6c4.4 1.1 7.7 5.1 7.7 9.9v3.5l27.3 47.3v-176.9c0-11.3-9.1-20.4-20.4-20.4h-6.8v17c0 5.6-4.6 10.2-10.2 10.2h-34.1c-5.6 0-10.2-4.6-10.2-10.2v-17h-272.6v17c0 5.6-4.6 10.2-10.2 10.2h-34.1c-5.6 0-10.2-4.6-10.2-10.2v-17h-6.8c-11.4 0-20.5 9.1-20.5 20.4v286.2c0 11.3 9.1 20.4 20.4 20.4h6.8v-17c0-5.6 4.6-10.2 10.2-10.2h34.1c5.6 0 10.2 4.6 10.2 10.2v17h101.4zm-155.8-262.4c0-5.6 4.6-10.2 10.2-10.2h34.1c5.6 0 10.2 4.6 10.2 10.2v34.1c0 5.6-4.6 10.2-10.2 10.2h-34.1c-5.6 0-10.2-4.6-10.2-10.2zm0 81.8c0-5.6 4.6-10.2 10.2-10.2h34.1c5.6 0 10.2 4.6 10.2 10.2v34.1c0 5.6-4.6 10.2-10.2 10.2h-34.1c-5.6 0-10.2-4.6-10.2-10.2zm44.3 126.1h-34.1c-5.6 0-10.2-4.6-10.2-10.2v-34.1c0-5.6 4.6-10.2 10.2-10.2h34.1c5.6 0 10.2 4.6 10.2 10.2v34.1c0 5.6-4.6 10.2-10.2 10.2z"/></g></svg>