<svg enable-background="new 0 0 448 512" viewBox="0 0 448 512" xmlns="http://www.w3.org/2000/svg"><path d="m433.9 129.9-83.9-83.9c-9-9-21.2-14.1-33.9-14.1h-268.1c-26.5.1-48 21.6-48 48.1v352c0 26.5 21.5 48 48 48h352c26.5 0 48-21.5 48-48v-268.1c0-12.7-5.1-25-14.1-34zm-209.9 286.1c-35.3 0-64-28.7-64-64s28.7-64 64-64 64 28.7 64 64-28.7 64-64 64zm96-304.5v100.5c0 6.6-5.4 12-12 12h-232c-6.6 0-12-5.4-12-12v-104c0-6.6 5.4-12 12-12h228.5c3.2 0 6.2 1.3 8.5 3.5l3.5 3.5c2.2 2.2 3.5 5.3 3.5 8.5z" fill="#777"/></svg>