<svg enable-background="new 0 0 576 512" viewBox="0 0 576 512" xmlns="http://www.w3.org/2000/svg"><path d="m571.3 251.3-22.6-22.6c-6.3-6.3-16.4-6.3-22.6 0l-46.1 46.1-46.1-46.1c-6.3-6.3-16.4-6.3-22.6 0l-22.6 22.6c-6.3 6.2-6.3 16.4 0 22.6l46.1 46.1-46.1 46.1c-6.3 6.3-6.3 16.4 0 22.6l22.6 22.6c6.3 6.3 16.4 6.3 22.6 0l46.1-46.1 46.1 46.1c6.3 6.3 16.4 6.3 22.6 0l22.6-22.6c6.3-6.3 6.3-16.4 0-22.6l-46-46.1 46.1-46.1c6.2-6.2 6.2-16.3-.1-22.6zm-19.3-251.3h-244.4c-14.5 0-27.3 9.8-31 23.9l-84.8 322.8-58.4-106.1c-5.6-10.2-16.4-16.6-28-16.6h-81.4c-13.3 0-24 10.7-24 24v48c0 13.3 10.8 24 24 24h43.6l88.9 163.7c12.5 19.8 29.8 28.3 48.4 28.3 17.3 0 44.4-9 54.3-41.5l97.8-374.5h195c13.3 0 24-10.8 24-24v-48c0-13.3-10.7-24-24-24z" fill="#777"/></svg>