<svg enable-background="new 0 0 512.3 512" viewBox="0 0 512.3 512" xmlns="http://www.w3.org/2000/svg"><path d="m440.9 12.6 4 82.8c-45.5-53.5-113.2-87.4-188.9-87.4-121.2 0-222.1 86.9-243.7 201.8-1.4 7.4 4.3 14.2 11.8 14.2h49.1c5.6 0 10.4-3.8 11.7-9.3 18.5-77.3 88-134.7 171.1-134.7 60.9 0 114.5 30.9 146.1 77.8l-101.5-4.9c-6.8-.3-12.6 5.1-12.6 12v47.4c0 6.6 5.4 12 12 12h200.3c6.6 0 12-5.4 12-12v-200.3c0-6.6-5.4-12-12-12h-47.4c-6.8 0-12.3 5.7-12 12.6zm-184.9 419.4c-60.9 0-114.5-30.9-146.1-77.8l101.9 4.9c6.8.3 12.6-5.1 12.6-12v-47.4c0-6.6-5.4-12-12-12h-200.4c-6.6 0-12 5.4-12 12v200.3c0 6.6 5.4 12 12 12h47.4c6.9 0 12.3-5.7 12-12.6l-4.1-82.6c45.4 53.4 113.1 87.2 188.7 87.2 121.2 0 222.1-86.9 243.7-201.8 1.4-7.4-4.3-14.2-11.8-14.2h-49.1c-5.6 0-10.4 3.8-11.7 9.3-18.5 77.3-88 134.7-171.1 134.7z" fill="#777"/></svg>