<svg enable-background="new 0 0 448 512" viewBox="0 0 448 512" xmlns="http://www.w3.org/2000/svg"><path d="m16 32h416c8.8 0 16 7.2 16 16v96c0 8.8-7.2 16-16 16h-35.5c-8.8 0-16-7.2-16-16v-48h-118.8v128h34.3c8.8 0 16 7.2 16 16v32c0 8.8-7.2 16-16 16h-144c-8.8 0-16-7.2-16-16v-32c0-8.8 7.2-16 16-16h34.3v-128h-118.8v48c0 8.8-7.2 16-16 16h-35.5c-8.8 0-16-7.2-16-16v-96c0-8.8 7.2-16 16-16zm427.3 340.7-80-80c-9.3-9.3-27.3-4.3-27.3 11.3v48h-224v-48c0-14.3-17.3-21.3-27.3-11.3l-80 80c-6.2 6.2-6.2 16.4 0 22.6l80 80c9.3 9.3 27.3 4.3 27.3-11.3v-48h224v48c0 14.3 17.3 21.3 27.3 11.3l80-80c6.3-6.2 6.3-16.4 0-22.6z" fill="#777"/></svg>