<svg clip-rule="evenodd" fill-rule="evenodd" stroke-linejoin="round" stroke-miterlimit="1.41421" viewBox="0 0 352 512" xmlns="http://www.w3.org/2000/svg"><path d="m242.7 256 100.1-100.1c12.3-12.3 12.3-32.2 0-44.5l-22.2-22.2c-12.3-12.3-32.2-12.3-44.5 0l-100.1 100.1-100.1-100.1c-12.3-12.3-32.2-12.3-44.5 0l-22.2 22.3c-12.3 12.3-12.3 32.2 0 44.5l100.1 100-100.1 100.1c-12.3 12.3-12.3 32.2 0 44.5l22.2 22.2c12.3 12.3 32.2 12.3 44.5 0l100.1-100.1 100.1 100.1c12.3 12.3 32.2 12.3 44.5 0l22.2-22.2c12.3-12.3 12.3-32.2 0-44.5z" fill="#d9534f" fill-rule="nonzero"/></svg>