<svg enable-background="new 0 0 640 512" viewBox="0 0 640 512" xmlns="http://www.w3.org/2000/svg"><g fill="#777"><path d="m440.9 278.5 27.3 15.7c3.1 1.8 4.6 5.5 3.5 9-7.1 22.8-19.2 43.4-35 60.6-2.4 2.6-6.4 3.2-9.5 1.4l-27.3-15.7c-11.5 9.8-24.7 17.5-38.9 22.5v31.5c0 3.6-2.5 6.7-6 7.5-22.4 5-46.4 5.3-69.9 0-3.5-.8-6-3.9-6-7.5v-31.5c-14.2-5-27.4-12.7-38.9-22.5l-27.3 15.7c-3.1 1.8-7.1 1.2-9.5-1.4-15.8-17.1-27.9-37.7-35-60.6-1.1-3.4.4-7.2 3.5-9l27.3-15.7c-2.7-14.9-2.7-30.1 0-44.9l-27.3-15.7c-3.1-1.8-4.6-5.5-3.5-9 7.1-22.8 19.2-43.4 35-60.6 2.4-2.6 6.4-3.2 9.5-1.4l27.3 15.7c11.5-9.8 24.7-17.5 38.9-22.5v-31.5c0-3.6 2.5-6.7 6-7.5 22.4-5 46.4-5.3 69.9 0 3.5.8 6 3.9 6 7.5v31.5c14.2 5 27.4 12.7 38.9 22.5l27.3-15.7c3.1-1.8 7.1-1.2 9.5 1.4 15.8 17.1 27.9 37.7 35 60.6 1.1 3.4-.4 7.2-3.5 9l-27.3 15.7c2.7 14.8 2.7 30 0 44.9zm-69.7-22.5c0-28.2-23-51.2-51.2-51.2s-51.2 23-51.2 51.2 23 51.2 51.2 51.2 51.2-23 51.2-51.2z"/><path d="m586.2 4.9h-519.5c-25.2 0-45.8 20.6-45.8 45.8v405.5c0 28 22.9 50.9 50.9 50.9h513.4c25.3 0 45.9-20.7 45.9-45.9v-411.4c0-24.7-20.2-44.9-44.9-44.9zm-18.9 445.5h-484v-390.3h484z"/></g></svg>