<svg clip-rule="evenodd" fill-rule="evenodd" stroke-linejoin="round" stroke-miterlimit="1.41421" viewBox="0 0 448 512" xmlns="http://www.w3.org/2000/svg"><g fill="#777" fill-rule="nonzero"><path d="m415.2 140.7-20.4 326.3c-1.6 25.3-22.6 45-47.9 45h-245.8c-25.3 0-46.3-19.7-47.9-45l-20.4-326.3c-.4-6.9 5.1-12.7 12-12.7h358.5c6.8 0 12.3 5.8 11.9 12.7z"/><path d="m0 84v-28c0-13.3 10.7-24 24-24h112l9.4-18.7c4-8.2 12.3-13.3 21.4-13.3h114.3c9.1 0 17.4 5.1 21.5 13.3l9.4 18.7h112c13.3 0 24 10.7 24 24v28c0 6.6-5.4 12-12 12h-424c-6.6 0-12-5.4-12-12z" transform="matrix(.985116 -.171889 .171889 .985116 -7.94935 63.378)"/></g></svg>