<svg clip-rule="evenodd" fill-rule="evenodd" stroke-linejoin="round" stroke-miterlimit="1.41421" viewBox="0 0 675 554" xmlns="http://www.w3.org/2000/svg"><g fill="#777" fill-rule="nonzero"><path d="m627.84 371.393h-13.537v-40.612c0-47.269-38.47-85.739-85.739-85.739-47.268 0-85.738 38.47-85.738 85.739v40.612h-13.537c-14.948 0-27.075 12.128-27.075 27.076v108.3c0 14.948 12.127 27.076 27.075 27.076h198.551c14.948 0 27.075-12.128 27.075-27.076v-108.3c0-14.948-12.127-27.076-27.075-27.076zm-58.663 0h-81.225v-40.612c0-22.394 18.219-40.613 40.612-40.613 22.394 0 40.613 18.219 40.613 40.613z"/><path d="m370.214 380.363c.828.036-.114 90.407 0 126.707.073 7.713 2.085 14.939 5.51 21.296h-226.892c-26.5 0-48-21.5-48-48v-9.6c0-72.2 57.1-130.7 128.6-133.8l95.4 95.4zm-255.782-284.197c-18.1-4.401-18.1-27.2 0-31.6l190.6-45.9c13-3.1 26.7-3.1 39.7 0l190.4 46c18.2 4.4 18.2 27.1 0 31.5l-96.3 23.2c8.7 17.2 14 36.4 14 57 0 70.7-57.3 128-128 128s-128-57.3-128-128c0-20.6 5.4-39.8 14-57l-66-15.9v52.6c7 4.2 12 11.5 12 20.3 0 8.4-4.6 15.4-11.1 19.7l15.6 62.3c1.7 6.9-2.1 14-7.6 14h-41.8c-5.5 0-9.3-7.1-7.6-14l15.6-62.3c-6.5-4.3-11.1-11.3-11.1-19.7 0-8.8 5-16.1 12-20.3v-58.4z"/></g></svg>