<svg clip-rule="evenodd" fill-rule="evenodd" stroke-linejoin="round" stroke-miterlimit="1.41421" viewBox="0 0 675 554" xmlns="http://www.w3.org/2000/svg"><g fill="#777"><path d="m665.268 518.283c5.371-6.949 4.091-16.951-2.858-22.322l-616.194-476.299c-6.948-5.371-16.95-4.09-22.321 2.858l-19.464 25.18c-5.371 6.949-4.09 16.951 2.858 22.322l616.194 476.299c6.949 5.371 16.951 4.09 22.322-2.858z"/><path d="m501.817 528.356c-.328.007-.656.01-.985.01h-352c-26.5 0-48-21.5-48-48v-9.6c0-72.2 57.1-130.7 128.6-133.8l95.4 95.4 23.02-23.02zm-81.585-191.39c71.5 3.101 128.6 61.601 128.6 133.8v9.6c0 1.269-.05 2.525-.146 3.769l-155.458-120.165zm-305.8-240.8c-18.1-4.4-18.1-27.2 0-31.6l190.6-45.9c13-3.1 26.7-3.1 39.7 0l190.4 46c18.2 4.4 18.2 27.1 0 31.5l-96.3 23.2c8.7 17.2 14 36.4 14 57 0 70.7-57.3 128-128 128-3.07 0-6.114-.108-9.13-.32l-112.174-86.707c-4.342-12.863-6.696-26.643-6.696-40.973 0-20.6 5.4-39.8 14-57l-66-15.9v52.6c7 4.2 12 11.5 12 20.3 0 1.559-.159 3.069-.458 4.524l-35.542-27.473v-55.751zm-2.285 130.988 49.168 38.005c-1.05 4.1-3.945 7.207-7.583 7.207h-41.8c-5.5 0-9.3-7.1-7.6-14z" fill-rule="nonzero"/></g></svg>