<svg clip-rule="evenodd" fill-rule="evenodd" stroke-linejoin="round" stroke-miterlimit="1.41421" viewBox="0 0 640 512" xmlns="http://www.w3.org/2000/svg"><g fill="#777" fill-rule="nonzero"><path d="m592.84 338.393h-13.537v-40.612c0-47.269-38.47-85.739-85.739-85.739-47.268 0-85.738 38.47-85.738 85.739v40.612h-13.537c-14.948 0-27.075 12.128-27.075 27.076v108.3c0 14.948 12.127 27.076 27.075 27.076h198.551c14.948 0 27.075-12.128 27.075-27.076v-108.3c0-14.948-12.127-27.076-27.075-27.076zm-58.663 0h-81.225v-40.612c0-22.394 18.219-40.613 40.612-40.613 22.394 0 40.613 18.219 40.613 40.613z"/><path d="m47.8 64h288.4c26.4 0 47.8 21.4 47.8 47.8v195.749c-20.941 4.865-46.587 34.551-46.786 55.619-.094 30.189-.11 53.379-.047 83.568-3.522.827-7.193 1.264-10.967 1.264h-278.4c-26.4 0-47.8-21.4-47.8-47.8v-288.4c0-26.4 21.4-47.8 47.8-47.8zm477.8 37.7c21.301-14.6 50.4.4 50.4 25.8v95.564c-19.916-24.421-50.46-39.869-82.095-40.021-11.739-.018-23.657 1.911-34.845 5.783-16.55 5.727-31.323 15.801-43.06 28.631v-40.157z"/></g></svg>